M48
; DRILL file KiCad 10.0.3 date 2026-07-20T23:50:33
; FORMAT={-:-/ absolute / metric / decimal}
; #@! TF.CreationDate,2026-07-20T23:50:33-03:00
; #@! TF.GenerationSoftware,Kicad,Pcbnew,10.0.3
; #@! TF.FileFunction,MixedPlating,1,2
FMAT,2
METRIC
; #@! TA.AperFunction,Plated,PTH,ComponentDrill
T1C0.750
; #@! TA.AperFunction,Plated,PTH,ComponentDrill
T2C0.800
; #@! TA.AperFunction,Plated,PTH,ComponentDrill
T3C1.000
; #@! TA.AperFunction,Plated,PTH,ComponentDrill
T4C1.100
; #@! TA.AperFunction,Plated,PTH,ComponentDrill
T5C1.300
; #@! TA.AperFunction,Plated,PTH,ComponentDrill
T6C1.600
; #@! TA.AperFunction,Plated,PTH,ComponentDrill
T7C2.500
; #@! TA.AperFunction,NonPlated,NPTH,ComponentDrill
T8C3.200
%
G90
G05
T1
X156.0Y-131.73
X156.0Y-133.0
X156.0Y-134.27
X198.0Y-101.5
X198.0Y-102.77
X198.0Y-104.04
T2
X163.5Y-127.65
X163.5Y-137.81
X173.5Y-126.92
X173.5Y-137.08
X175.5Y-84.0
X175.5Y-86.5
X176.84Y-101.5
X176.92Y-108.5
X177.0Y-127.5
X187.0Y-101.5
X187.08Y-108.5
X187.16Y-127.5
X205.69Y-71.492
X205.69Y-73.992
T3
X144.0Y-73.94
X144.0Y-76.48
X144.0Y-79.02
X144.0Y-81.56
X144.0Y-84.1
X144.0Y-86.64
X144.0Y-89.18
X144.0Y-91.72
X144.0Y-94.26
X144.0Y-96.8
X144.0Y-99.34
X144.0Y-101.88
X144.0Y-104.42
X144.0Y-106.96
X144.0Y-109.5
X144.0Y-112.04
X144.0Y-114.58
X144.0Y-117.12
X144.0Y-119.66
X149.0Y-128.42
X149.0Y-130.96
X149.0Y-133.5
X149.0Y-136.04
X166.8Y-73.94
X166.8Y-76.48
X166.8Y-79.02
X166.8Y-81.56
X166.8Y-84.1
X166.8Y-86.64
X166.8Y-89.18
X166.8Y-91.72
X166.8Y-94.26
X166.8Y-96.8
X166.8Y-99.34
X166.8Y-101.88
X166.8Y-104.42
X166.8Y-106.96
X166.8Y-109.5
X166.8Y-112.04
X166.8Y-114.58
X166.8Y-117.12
X166.8Y-119.66
X209.5Y-109.7
X221.5Y-109.7
T4
X193.34Y-94.5
X196.19Y-70.91
X196.19Y-72.61
X196.19Y-74.31
X196.19Y-76.01
X196.19Y-77.71
X203.5Y-94.5
X207.5Y-126.0
X207.5Y-128.54
X207.5Y-131.08
T5
X175.19Y-73.81
X180.19Y-73.81
X209.45Y-97.45
X215.45Y-111.65
X216.5Y-121.0
X216.5Y-126.0
X218.032Y-79.75
X218.032Y-84.75
X221.5Y-97.5
T6
X188.19Y-68.19
X188.19Y-83.43
T7
X197.05Y-115.84
X197.05Y-141.24
T8
X127.0Y-143.5
X127.5Y-63.5
X230.0Y-63.5
X230.0Y-143.5
M30
