%TF.GenerationSoftware,KiCad,Pcbnew,10.0.3*%
%TF.CreationDate,2026-07-20T23:38:55-03:00*%
%TF.ProjectId,ProyectoTransversal,50726f79-6563-4746-9f54-72616e737665,rev?*%
%TF.SameCoordinates,Original*%
%TF.FileFunction,Legend,Top*%
%TF.FilePolarity,Positive*%
%FSLAX46Y46*%
G04 Gerber Fmt 4.6, Leading zero omitted, Abs format (unit mm)*
G04 Created by KiCad (PCBNEW 10.0.3) date 2026-07-20 23:38:55*
%MOMM*%
%LPD*%
G01*
G04 APERTURE LIST*
%ADD10C,0.150000*%
%ADD11C,0.120000*%
G04 APERTURE END LIST*
D10*
X179609580Y-85416666D02*
X179657200Y-85464285D01*
X179657200Y-85464285D02*
X179704819Y-85607142D01*
X179704819Y-85607142D02*
X179704819Y-85702380D01*
X179704819Y-85702380D02*
X179657200Y-85845237D01*
X179657200Y-85845237D02*
X179561961Y-85940475D01*
X179561961Y-85940475D02*
X179466723Y-85988094D01*
X179466723Y-85988094D02*
X179276247Y-86035713D01*
X179276247Y-86035713D02*
X179133390Y-86035713D01*
X179133390Y-86035713D02*
X178942914Y-85988094D01*
X178942914Y-85988094D02*
X178847676Y-85940475D01*
X178847676Y-85940475D02*
X178752438Y-85845237D01*
X178752438Y-85845237D02*
X178704819Y-85702380D01*
X178704819Y-85702380D02*
X178704819Y-85607142D01*
X178704819Y-85607142D02*
X178752438Y-85464285D01*
X178752438Y-85464285D02*
X178800057Y-85416666D01*
X178800057Y-85035713D02*
X178752438Y-84988094D01*
X178752438Y-84988094D02*
X178704819Y-84892856D01*
X178704819Y-84892856D02*
X178704819Y-84654761D01*
X178704819Y-84654761D02*
X178752438Y-84559523D01*
X178752438Y-84559523D02*
X178800057Y-84511904D01*
X178800057Y-84511904D02*
X178895295Y-84464285D01*
X178895295Y-84464285D02*
X178990533Y-84464285D01*
X178990533Y-84464285D02*
X179133390Y-84511904D01*
X179133390Y-84511904D02*
X179704819Y-85083332D01*
X179704819Y-85083332D02*
X179704819Y-84464285D01*
X166466666Y-71014819D02*
X166466666Y-71729104D01*
X166466666Y-71729104D02*
X166419047Y-71871961D01*
X166419047Y-71871961D02*
X166323809Y-71967200D01*
X166323809Y-71967200D02*
X166180952Y-72014819D01*
X166180952Y-72014819D02*
X166085714Y-72014819D01*
X167466666Y-72014819D02*
X166895238Y-72014819D01*
X167180952Y-72014819D02*
X167180952Y-71014819D01*
X167180952Y-71014819D02*
X167085714Y-71157676D01*
X167085714Y-71157676D02*
X166990476Y-71252914D01*
X166990476Y-71252914D02*
X166895238Y-71300533D01*
X126166666Y-59804819D02*
X125833333Y-59328628D01*
X125595238Y-59804819D02*
X125595238Y-58804819D01*
X125595238Y-58804819D02*
X125976190Y-58804819D01*
X125976190Y-58804819D02*
X126071428Y-58852438D01*
X126071428Y-58852438D02*
X126119047Y-58900057D01*
X126119047Y-58900057D02*
X126166666Y-58995295D01*
X126166666Y-58995295D02*
X126166666Y-59138152D01*
X126166666Y-59138152D02*
X126119047Y-59233390D01*
X126119047Y-59233390D02*
X126071428Y-59281009D01*
X126071428Y-59281009D02*
X125976190Y-59328628D01*
X125976190Y-59328628D02*
X125595238Y-59328628D01*
X126595238Y-59281009D02*
X126928571Y-59281009D01*
X127071428Y-59804819D02*
X126595238Y-59804819D01*
X126595238Y-59804819D02*
X126595238Y-58804819D01*
X126595238Y-58804819D02*
X127071428Y-58804819D01*
X127833333Y-59281009D02*
X127500000Y-59281009D01*
X127500000Y-59804819D02*
X127500000Y-58804819D01*
X127500000Y-58804819D02*
X127976190Y-58804819D01*
X128500000Y-58804819D02*
X128500000Y-59042914D01*
X128261905Y-58947676D02*
X128500000Y-59042914D01*
X128500000Y-59042914D02*
X128738095Y-58947676D01*
X128357143Y-59233390D02*
X128500000Y-59042914D01*
X128500000Y-59042914D02*
X128642857Y-59233390D01*
X129261905Y-58804819D02*
X129261905Y-59042914D01*
X129023810Y-58947676D02*
X129261905Y-59042914D01*
X129261905Y-59042914D02*
X129500000Y-58947676D01*
X129119048Y-59233390D02*
X129261905Y-59042914D01*
X129261905Y-59042914D02*
X129404762Y-59233390D01*
X125666666Y-139804819D02*
X125333333Y-139328628D01*
X125095238Y-139804819D02*
X125095238Y-138804819D01*
X125095238Y-138804819D02*
X125476190Y-138804819D01*
X125476190Y-138804819D02*
X125571428Y-138852438D01*
X125571428Y-138852438D02*
X125619047Y-138900057D01*
X125619047Y-138900057D02*
X125666666Y-138995295D01*
X125666666Y-138995295D02*
X125666666Y-139138152D01*
X125666666Y-139138152D02*
X125619047Y-139233390D01*
X125619047Y-139233390D02*
X125571428Y-139281009D01*
X125571428Y-139281009D02*
X125476190Y-139328628D01*
X125476190Y-139328628D02*
X125095238Y-139328628D01*
X126095238Y-139281009D02*
X126428571Y-139281009D01*
X126571428Y-139804819D02*
X126095238Y-139804819D01*
X126095238Y-139804819D02*
X126095238Y-138804819D01*
X126095238Y-138804819D02*
X126571428Y-138804819D01*
X127333333Y-139281009D02*
X127000000Y-139281009D01*
X127000000Y-139804819D02*
X127000000Y-138804819D01*
X127000000Y-138804819D02*
X127476190Y-138804819D01*
X128000000Y-138804819D02*
X128000000Y-139042914D01*
X127761905Y-138947676D02*
X128000000Y-139042914D01*
X128000000Y-139042914D02*
X128238095Y-138947676D01*
X127857143Y-139233390D02*
X128000000Y-139042914D01*
X128000000Y-139042914D02*
X128142857Y-139233390D01*
X128761905Y-138804819D02*
X128761905Y-139042914D01*
X128523810Y-138947676D02*
X128761905Y-139042914D01*
X128761905Y-139042914D02*
X129000000Y-138947676D01*
X128619048Y-139233390D02*
X128761905Y-139042914D01*
X128761905Y-139042914D02*
X128904762Y-139233390D01*
X210834819Y-124083333D02*
X211549104Y-124083333D01*
X211549104Y-124083333D02*
X211691961Y-124130952D01*
X211691961Y-124130952D02*
X211787200Y-124226190D01*
X211787200Y-124226190D02*
X211834819Y-124369047D01*
X211834819Y-124369047D02*
X211834819Y-124464285D01*
X210834819Y-123702380D02*
X210834819Y-123083333D01*
X210834819Y-123083333D02*
X211215771Y-123416666D01*
X211215771Y-123416666D02*
X211215771Y-123273809D01*
X211215771Y-123273809D02*
X211263390Y-123178571D01*
X211263390Y-123178571D02*
X211311009Y-123130952D01*
X211311009Y-123130952D02*
X211406247Y-123083333D01*
X211406247Y-123083333D02*
X211644342Y-123083333D01*
X211644342Y-123083333D02*
X211739580Y-123130952D01*
X211739580Y-123130952D02*
X211787200Y-123178571D01*
X211787200Y-123178571D02*
X211834819Y-123273809D01*
X211834819Y-123273809D02*
X211834819Y-123559523D01*
X211834819Y-123559523D02*
X211787200Y-123654761D01*
X211787200Y-123654761D02*
X211739580Y-123702380D01*
X177523333Y-80764819D02*
X177047143Y-80764819D01*
X177047143Y-80764819D02*
X177047143Y-79764819D01*
X178380476Y-80764819D02*
X177809048Y-80764819D01*
X178094762Y-80764819D02*
X178094762Y-79764819D01*
X178094762Y-79764819D02*
X177999524Y-79907676D01*
X177999524Y-79907676D02*
X177904286Y-80002914D01*
X177904286Y-80002914D02*
X177809048Y-80050533D01*
X148666666Y-125494819D02*
X148666666Y-126209104D01*
X148666666Y-126209104D02*
X148619047Y-126351961D01*
X148619047Y-126351961D02*
X148523809Y-126447200D01*
X148523809Y-126447200D02*
X148380952Y-126494819D01*
X148380952Y-126494819D02*
X148285714Y-126494819D01*
X149619047Y-125494819D02*
X149142857Y-125494819D01*
X149142857Y-125494819D02*
X149095238Y-125971009D01*
X149095238Y-125971009D02*
X149142857Y-125923390D01*
X149142857Y-125923390D02*
X149238095Y-125875771D01*
X149238095Y-125875771D02*
X149476190Y-125875771D01*
X149476190Y-125875771D02*
X149571428Y-125923390D01*
X149571428Y-125923390D02*
X149619047Y-125971009D01*
X149619047Y-125971009D02*
X149666666Y-126066247D01*
X149666666Y-126066247D02*
X149666666Y-126304342D01*
X149666666Y-126304342D02*
X149619047Y-126399580D01*
X149619047Y-126399580D02*
X149571428Y-126447200D01*
X149571428Y-126447200D02*
X149476190Y-126494819D01*
X149476190Y-126494819D02*
X149238095Y-126494819D01*
X149238095Y-126494819D02*
X149142857Y-126447200D01*
X149142857Y-126447200D02*
X149095238Y-126399580D01*
X202110057Y-102865238D02*
X202062438Y-102960476D01*
X202062438Y-102960476D02*
X201967200Y-103055714D01*
X201967200Y-103055714D02*
X201824342Y-103198571D01*
X201824342Y-103198571D02*
X201776723Y-103293809D01*
X201776723Y-103293809D02*
X201776723Y-103389047D01*
X202014819Y-103341428D02*
X201967200Y-103436666D01*
X201967200Y-103436666D02*
X201871961Y-103531904D01*
X201871961Y-103531904D02*
X201681485Y-103579523D01*
X201681485Y-103579523D02*
X201348152Y-103579523D01*
X201348152Y-103579523D02*
X201157676Y-103531904D01*
X201157676Y-103531904D02*
X201062438Y-103436666D01*
X201062438Y-103436666D02*
X201014819Y-103341428D01*
X201014819Y-103341428D02*
X201014819Y-103150952D01*
X201014819Y-103150952D02*
X201062438Y-103055714D01*
X201062438Y-103055714D02*
X201157676Y-102960476D01*
X201157676Y-102960476D02*
X201348152Y-102912857D01*
X201348152Y-102912857D02*
X201681485Y-102912857D01*
X201681485Y-102912857D02*
X201871961Y-102960476D01*
X201871961Y-102960476D02*
X201967200Y-103055714D01*
X201967200Y-103055714D02*
X202014819Y-103150952D01*
X202014819Y-103150952D02*
X202014819Y-103341428D01*
X201110057Y-102531904D02*
X201062438Y-102484285D01*
X201062438Y-102484285D02*
X201014819Y-102389047D01*
X201014819Y-102389047D02*
X201014819Y-102150952D01*
X201014819Y-102150952D02*
X201062438Y-102055714D01*
X201062438Y-102055714D02*
X201110057Y-102008095D01*
X201110057Y-102008095D02*
X201205295Y-101960476D01*
X201205295Y-101960476D02*
X201300533Y-101960476D01*
X201300533Y-101960476D02*
X201443390Y-102008095D01*
X201443390Y-102008095D02*
X202014819Y-102579523D01*
X202014819Y-102579523D02*
X202014819Y-101960476D01*
X181753333Y-104324819D02*
X181420000Y-103848628D01*
X181181905Y-104324819D02*
X181181905Y-103324819D01*
X181181905Y-103324819D02*
X181562857Y-103324819D01*
X181562857Y-103324819D02*
X181658095Y-103372438D01*
X181658095Y-103372438D02*
X181705714Y-103420057D01*
X181705714Y-103420057D02*
X181753333Y-103515295D01*
X181753333Y-103515295D02*
X181753333Y-103658152D01*
X181753333Y-103658152D02*
X181705714Y-103753390D01*
X181705714Y-103753390D02*
X181658095Y-103801009D01*
X181658095Y-103801009D02*
X181562857Y-103848628D01*
X181562857Y-103848628D02*
X181181905Y-103848628D01*
X182610476Y-103658152D02*
X182610476Y-104324819D01*
X182372381Y-103277200D02*
X182134286Y-103991485D01*
X182134286Y-103991485D02*
X182753333Y-103991485D01*
X151894819Y-133761904D02*
X152704342Y-133761904D01*
X152704342Y-133761904D02*
X152799580Y-133714285D01*
X152799580Y-133714285D02*
X152847200Y-133666666D01*
X152847200Y-133666666D02*
X152894819Y-133571428D01*
X152894819Y-133571428D02*
X152894819Y-133380952D01*
X152894819Y-133380952D02*
X152847200Y-133285714D01*
X152847200Y-133285714D02*
X152799580Y-133238095D01*
X152799580Y-133238095D02*
X152704342Y-133190476D01*
X152704342Y-133190476D02*
X151894819Y-133190476D01*
X152894819Y-132190476D02*
X152894819Y-132761904D01*
X152894819Y-132476190D02*
X151894819Y-132476190D01*
X151894819Y-132476190D02*
X152037676Y-132571428D01*
X152037676Y-132571428D02*
X152132914Y-132666666D01*
X152132914Y-132666666D02*
X152180533Y-132761904D01*
X171584819Y-132166666D02*
X171108628Y-132499999D01*
X171584819Y-132738094D02*
X170584819Y-132738094D01*
X170584819Y-132738094D02*
X170584819Y-132357142D01*
X170584819Y-132357142D02*
X170632438Y-132261904D01*
X170632438Y-132261904D02*
X170680057Y-132214285D01*
X170680057Y-132214285D02*
X170775295Y-132166666D01*
X170775295Y-132166666D02*
X170918152Y-132166666D01*
X170918152Y-132166666D02*
X171013390Y-132214285D01*
X171013390Y-132214285D02*
X171061009Y-132261904D01*
X171061009Y-132261904D02*
X171108628Y-132357142D01*
X171108628Y-132357142D02*
X171108628Y-132738094D01*
X170680057Y-131785713D02*
X170632438Y-131738094D01*
X170632438Y-131738094D02*
X170584819Y-131642856D01*
X170584819Y-131642856D02*
X170584819Y-131404761D01*
X170584819Y-131404761D02*
X170632438Y-131309523D01*
X170632438Y-131309523D02*
X170680057Y-131261904D01*
X170680057Y-131261904D02*
X170775295Y-131214285D01*
X170775295Y-131214285D02*
X170870533Y-131214285D01*
X170870533Y-131214285D02*
X171013390Y-131261904D01*
X171013390Y-131261904D02*
X171584819Y-131833332D01*
X171584819Y-131833332D02*
X171584819Y-131214285D01*
X166324819Y-132896666D02*
X165848628Y-133229999D01*
X166324819Y-133468094D02*
X165324819Y-133468094D01*
X165324819Y-133468094D02*
X165324819Y-133087142D01*
X165324819Y-133087142D02*
X165372438Y-132991904D01*
X165372438Y-132991904D02*
X165420057Y-132944285D01*
X165420057Y-132944285D02*
X165515295Y-132896666D01*
X165515295Y-132896666D02*
X165658152Y-132896666D01*
X165658152Y-132896666D02*
X165753390Y-132944285D01*
X165753390Y-132944285D02*
X165801009Y-132991904D01*
X165801009Y-132991904D02*
X165848628Y-133087142D01*
X165848628Y-133087142D02*
X165848628Y-133468094D01*
X165324819Y-132563332D02*
X165324819Y-131944285D01*
X165324819Y-131944285D02*
X165705771Y-132277618D01*
X165705771Y-132277618D02*
X165705771Y-132134761D01*
X165705771Y-132134761D02*
X165753390Y-132039523D01*
X165753390Y-132039523D02*
X165801009Y-131991904D01*
X165801009Y-131991904D02*
X165896247Y-131944285D01*
X165896247Y-131944285D02*
X166134342Y-131944285D01*
X166134342Y-131944285D02*
X166229580Y-131991904D01*
X166229580Y-131991904D02*
X166277200Y-132039523D01*
X166277200Y-132039523D02*
X166324819Y-132134761D01*
X166324819Y-132134761D02*
X166324819Y-132420475D01*
X166324819Y-132420475D02*
X166277200Y-132515713D01*
X166277200Y-132515713D02*
X166229580Y-132563332D01*
X197681905Y-97424819D02*
X197681905Y-96424819D01*
X197681905Y-96424819D02*
X197920000Y-96424819D01*
X197920000Y-96424819D02*
X198062857Y-96472438D01*
X198062857Y-96472438D02*
X198158095Y-96567676D01*
X198158095Y-96567676D02*
X198205714Y-96662914D01*
X198205714Y-96662914D02*
X198253333Y-96853390D01*
X198253333Y-96853390D02*
X198253333Y-96996247D01*
X198253333Y-96996247D02*
X198205714Y-97186723D01*
X198205714Y-97186723D02*
X198158095Y-97281961D01*
X198158095Y-97281961D02*
X198062857Y-97377200D01*
X198062857Y-97377200D02*
X197920000Y-97424819D01*
X197920000Y-97424819D02*
X197681905Y-97424819D01*
X199205714Y-97424819D02*
X198634286Y-97424819D01*
X198920000Y-97424819D02*
X198920000Y-96424819D01*
X198920000Y-96424819D02*
X198824762Y-96567676D01*
X198824762Y-96567676D02*
X198729524Y-96662914D01*
X198729524Y-96662914D02*
X198634286Y-96710533D01*
X203238095Y-97054819D02*
X203238095Y-96054819D01*
X203809523Y-97054819D02*
X203380952Y-96483390D01*
X203809523Y-96054819D02*
X203238095Y-96626247D01*
X195004819Y-129803094D02*
X194004819Y-129803094D01*
X194481009Y-129803094D02*
X194481009Y-129231666D01*
X195004819Y-129231666D02*
X194004819Y-129231666D01*
X194957200Y-128803094D02*
X195004819Y-128660237D01*
X195004819Y-128660237D02*
X195004819Y-128422142D01*
X195004819Y-128422142D02*
X194957200Y-128326904D01*
X194957200Y-128326904D02*
X194909580Y-128279285D01*
X194909580Y-128279285D02*
X194814342Y-128231666D01*
X194814342Y-128231666D02*
X194719104Y-128231666D01*
X194719104Y-128231666D02*
X194623866Y-128279285D01*
X194623866Y-128279285D02*
X194576247Y-128326904D01*
X194576247Y-128326904D02*
X194528628Y-128422142D01*
X194528628Y-128422142D02*
X194481009Y-128612618D01*
X194481009Y-128612618D02*
X194433390Y-128707856D01*
X194433390Y-128707856D02*
X194385771Y-128755475D01*
X194385771Y-128755475D02*
X194290533Y-128803094D01*
X194290533Y-128803094D02*
X194195295Y-128803094D01*
X194195295Y-128803094D02*
X194100057Y-128755475D01*
X194100057Y-128755475D02*
X194052438Y-128707856D01*
X194052438Y-128707856D02*
X194004819Y-128612618D01*
X194004819Y-128612618D02*
X194004819Y-128374523D01*
X194004819Y-128374523D02*
X194052438Y-128231666D01*
X195004819Y-127279285D02*
X195004819Y-127850713D01*
X195004819Y-127564999D02*
X194004819Y-127564999D01*
X194004819Y-127564999D02*
X194147676Y-127660237D01*
X194147676Y-127660237D02*
X194242914Y-127755475D01*
X194242914Y-127755475D02*
X194290533Y-127850713D01*
X228666666Y-59804819D02*
X228333333Y-59328628D01*
X228095238Y-59804819D02*
X228095238Y-58804819D01*
X228095238Y-58804819D02*
X228476190Y-58804819D01*
X228476190Y-58804819D02*
X228571428Y-58852438D01*
X228571428Y-58852438D02*
X228619047Y-58900057D01*
X228619047Y-58900057D02*
X228666666Y-58995295D01*
X228666666Y-58995295D02*
X228666666Y-59138152D01*
X228666666Y-59138152D02*
X228619047Y-59233390D01*
X228619047Y-59233390D02*
X228571428Y-59281009D01*
X228571428Y-59281009D02*
X228476190Y-59328628D01*
X228476190Y-59328628D02*
X228095238Y-59328628D01*
X229095238Y-59281009D02*
X229428571Y-59281009D01*
X229571428Y-59804819D02*
X229095238Y-59804819D01*
X229095238Y-59804819D02*
X229095238Y-58804819D01*
X229095238Y-58804819D02*
X229571428Y-58804819D01*
X230333333Y-59281009D02*
X230000000Y-59281009D01*
X230000000Y-59804819D02*
X230000000Y-58804819D01*
X230000000Y-58804819D02*
X230476190Y-58804819D01*
X231000000Y-58804819D02*
X231000000Y-59042914D01*
X230761905Y-58947676D02*
X231000000Y-59042914D01*
X231000000Y-59042914D02*
X231238095Y-58947676D01*
X230857143Y-59233390D02*
X231000000Y-59042914D01*
X231000000Y-59042914D02*
X231142857Y-59233390D01*
X231761905Y-58804819D02*
X231761905Y-59042914D01*
X231523810Y-58947676D02*
X231761905Y-59042914D01*
X231761905Y-59042914D02*
X232000000Y-58947676D01*
X231619048Y-59233390D02*
X231761905Y-59042914D01*
X231761905Y-59042914D02*
X231904762Y-59233390D01*
X203950057Y-128635238D02*
X203902438Y-128730476D01*
X203902438Y-128730476D02*
X203807200Y-128825714D01*
X203807200Y-128825714D02*
X203664342Y-128968571D01*
X203664342Y-128968571D02*
X203616723Y-129063809D01*
X203616723Y-129063809D02*
X203616723Y-129159047D01*
X203854819Y-129111428D02*
X203807200Y-129206666D01*
X203807200Y-129206666D02*
X203711961Y-129301904D01*
X203711961Y-129301904D02*
X203521485Y-129349523D01*
X203521485Y-129349523D02*
X203188152Y-129349523D01*
X203188152Y-129349523D02*
X202997676Y-129301904D01*
X202997676Y-129301904D02*
X202902438Y-129206666D01*
X202902438Y-129206666D02*
X202854819Y-129111428D01*
X202854819Y-129111428D02*
X202854819Y-128920952D01*
X202854819Y-128920952D02*
X202902438Y-128825714D01*
X202902438Y-128825714D02*
X202997676Y-128730476D01*
X202997676Y-128730476D02*
X203188152Y-128682857D01*
X203188152Y-128682857D02*
X203521485Y-128682857D01*
X203521485Y-128682857D02*
X203711961Y-128730476D01*
X203711961Y-128730476D02*
X203807200Y-128825714D01*
X203807200Y-128825714D02*
X203854819Y-128920952D01*
X203854819Y-128920952D02*
X203854819Y-129111428D01*
X203854819Y-127730476D02*
X203854819Y-128301904D01*
X203854819Y-128016190D02*
X202854819Y-128016190D01*
X202854819Y-128016190D02*
X202997676Y-128111428D01*
X202997676Y-128111428D02*
X203092914Y-128206666D01*
X203092914Y-128206666D02*
X203140533Y-128301904D01*
X228666666Y-139804819D02*
X228333333Y-139328628D01*
X228095238Y-139804819D02*
X228095238Y-138804819D01*
X228095238Y-138804819D02*
X228476190Y-138804819D01*
X228476190Y-138804819D02*
X228571428Y-138852438D01*
X228571428Y-138852438D02*
X228619047Y-138900057D01*
X228619047Y-138900057D02*
X228666666Y-138995295D01*
X228666666Y-138995295D02*
X228666666Y-139138152D01*
X228666666Y-139138152D02*
X228619047Y-139233390D01*
X228619047Y-139233390D02*
X228571428Y-139281009D01*
X228571428Y-139281009D02*
X228476190Y-139328628D01*
X228476190Y-139328628D02*
X228095238Y-139328628D01*
X229095238Y-139281009D02*
X229428571Y-139281009D01*
X229571428Y-139804819D02*
X229095238Y-139804819D01*
X229095238Y-139804819D02*
X229095238Y-138804819D01*
X229095238Y-138804819D02*
X229571428Y-138804819D01*
X230333333Y-139281009D02*
X230000000Y-139281009D01*
X230000000Y-139804819D02*
X230000000Y-138804819D01*
X230000000Y-138804819D02*
X230476190Y-138804819D01*
X231000000Y-138804819D02*
X231000000Y-139042914D01*
X230761905Y-138947676D02*
X231000000Y-139042914D01*
X231000000Y-139042914D02*
X231238095Y-138947676D01*
X230857143Y-139233390D02*
X231000000Y-139042914D01*
X231000000Y-139042914D02*
X231142857Y-139233390D01*
X231761905Y-138804819D02*
X231761905Y-139042914D01*
X231523810Y-138947676D02*
X231761905Y-139042914D01*
X231761905Y-139042914D02*
X232000000Y-138947676D01*
X231619048Y-139233390D02*
X231761905Y-139042914D01*
X231761905Y-139042914D02*
X231904762Y-139233390D01*
X225104819Y-104288094D02*
X224104819Y-104288094D01*
X225104819Y-103716666D02*
X224533390Y-104145237D01*
X224104819Y-103716666D02*
X224676247Y-104288094D01*
X225104819Y-102764285D02*
X225104819Y-103335713D01*
X225104819Y-103049999D02*
X224104819Y-103049999D01*
X224104819Y-103049999D02*
X224247676Y-103145237D01*
X224247676Y-103145237D02*
X224342914Y-103240475D01*
X224342914Y-103240475D02*
X224390533Y-103335713D01*
X199744819Y-75071904D02*
X200554342Y-75071904D01*
X200554342Y-75071904D02*
X200649580Y-75024285D01*
X200649580Y-75024285D02*
X200697200Y-74976666D01*
X200697200Y-74976666D02*
X200744819Y-74881428D01*
X200744819Y-74881428D02*
X200744819Y-74690952D01*
X200744819Y-74690952D02*
X200697200Y-74595714D01*
X200697200Y-74595714D02*
X200649580Y-74548095D01*
X200649580Y-74548095D02*
X200554342Y-74500476D01*
X200554342Y-74500476D02*
X199744819Y-74500476D01*
X199840057Y-74071904D02*
X199792438Y-74024285D01*
X199792438Y-74024285D02*
X199744819Y-73929047D01*
X199744819Y-73929047D02*
X199744819Y-73690952D01*
X199744819Y-73690952D02*
X199792438Y-73595714D01*
X199792438Y-73595714D02*
X199840057Y-73548095D01*
X199840057Y-73548095D02*
X199935295Y-73500476D01*
X199935295Y-73500476D02*
X200030533Y-73500476D01*
X200030533Y-73500476D02*
X200173390Y-73548095D01*
X200173390Y-73548095D02*
X200744819Y-74119523D01*
X200744819Y-74119523D02*
X200744819Y-73500476D01*
X143666666Y-71014819D02*
X143666666Y-71729104D01*
X143666666Y-71729104D02*
X143619047Y-71871961D01*
X143619047Y-71871961D02*
X143523809Y-71967200D01*
X143523809Y-71967200D02*
X143380952Y-72014819D01*
X143380952Y-72014819D02*
X143285714Y-72014819D01*
X144095238Y-71110057D02*
X144142857Y-71062438D01*
X144142857Y-71062438D02*
X144238095Y-71014819D01*
X144238095Y-71014819D02*
X144476190Y-71014819D01*
X144476190Y-71014819D02*
X144571428Y-71062438D01*
X144571428Y-71062438D02*
X144619047Y-71110057D01*
X144619047Y-71110057D02*
X144666666Y-71205295D01*
X144666666Y-71205295D02*
X144666666Y-71300533D01*
X144666666Y-71300533D02*
X144619047Y-71443390D01*
X144619047Y-71443390D02*
X144047619Y-72014819D01*
X144047619Y-72014819D02*
X144666666Y-72014819D01*
X181913333Y-125584819D02*
X181580000Y-125108628D01*
X181341905Y-125584819D02*
X181341905Y-124584819D01*
X181341905Y-124584819D02*
X181722857Y-124584819D01*
X181722857Y-124584819D02*
X181818095Y-124632438D01*
X181818095Y-124632438D02*
X181865714Y-124680057D01*
X181865714Y-124680057D02*
X181913333Y-124775295D01*
X181913333Y-124775295D02*
X181913333Y-124918152D01*
X181913333Y-124918152D02*
X181865714Y-125013390D01*
X181865714Y-125013390D02*
X181818095Y-125061009D01*
X181818095Y-125061009D02*
X181722857Y-125108628D01*
X181722857Y-125108628D02*
X181341905Y-125108628D01*
X182865714Y-125584819D02*
X182294286Y-125584819D01*
X182580000Y-125584819D02*
X182580000Y-124584819D01*
X182580000Y-124584819D02*
X182484762Y-124727676D01*
X182484762Y-124727676D02*
X182389524Y-124822914D01*
X182389524Y-124822914D02*
X182294286Y-124870533D01*
X210449580Y-72909046D02*
X210497200Y-72956665D01*
X210497200Y-72956665D02*
X210544819Y-73099522D01*
X210544819Y-73099522D02*
X210544819Y-73194760D01*
X210544819Y-73194760D02*
X210497200Y-73337617D01*
X210497200Y-73337617D02*
X210401961Y-73432855D01*
X210401961Y-73432855D02*
X210306723Y-73480474D01*
X210306723Y-73480474D02*
X210116247Y-73528093D01*
X210116247Y-73528093D02*
X209973390Y-73528093D01*
X209973390Y-73528093D02*
X209782914Y-73480474D01*
X209782914Y-73480474D02*
X209687676Y-73432855D01*
X209687676Y-73432855D02*
X209592438Y-73337617D01*
X209592438Y-73337617D02*
X209544819Y-73194760D01*
X209544819Y-73194760D02*
X209544819Y-73099522D01*
X209544819Y-73099522D02*
X209592438Y-72956665D01*
X209592438Y-72956665D02*
X209640057Y-72909046D01*
X210544819Y-71956665D02*
X210544819Y-72528093D01*
X210544819Y-72242379D02*
X209544819Y-72242379D01*
X209544819Y-72242379D02*
X209687676Y-72337617D01*
X209687676Y-72337617D02*
X209782914Y-72432855D01*
X209782914Y-72432855D02*
X209830533Y-72528093D01*
X192364819Y-76548094D02*
X191364819Y-76548094D01*
X191364819Y-76548094D02*
X191364819Y-76309999D01*
X191364819Y-76309999D02*
X191412438Y-76167142D01*
X191412438Y-76167142D02*
X191507676Y-76071904D01*
X191507676Y-76071904D02*
X191602914Y-76024285D01*
X191602914Y-76024285D02*
X191793390Y-75976666D01*
X191793390Y-75976666D02*
X191936247Y-75976666D01*
X191936247Y-75976666D02*
X192126723Y-76024285D01*
X192126723Y-76024285D02*
X192221961Y-76071904D01*
X192221961Y-76071904D02*
X192317200Y-76167142D01*
X192317200Y-76167142D02*
X192364819Y-76309999D01*
X192364819Y-76309999D02*
X192364819Y-76548094D01*
X191460057Y-75595713D02*
X191412438Y-75548094D01*
X191412438Y-75548094D02*
X191364819Y-75452856D01*
X191364819Y-75452856D02*
X191364819Y-75214761D01*
X191364819Y-75214761D02*
X191412438Y-75119523D01*
X191412438Y-75119523D02*
X191460057Y-75071904D01*
X191460057Y-75071904D02*
X191555295Y-75024285D01*
X191555295Y-75024285D02*
X191650533Y-75024285D01*
X191650533Y-75024285D02*
X191793390Y-75071904D01*
X191793390Y-75071904D02*
X192364819Y-75643332D01*
X192364819Y-75643332D02*
X192364819Y-75024285D01*
X191244819Y-68451904D02*
X190244819Y-68451904D01*
X191244819Y-67880476D02*
X190673390Y-68309047D01*
X190244819Y-67880476D02*
X190816247Y-68451904D01*
X181833333Y-106584819D02*
X181500000Y-106108628D01*
X181261905Y-106584819D02*
X181261905Y-105584819D01*
X181261905Y-105584819D02*
X181642857Y-105584819D01*
X181642857Y-105584819D02*
X181738095Y-105632438D01*
X181738095Y-105632438D02*
X181785714Y-105680057D01*
X181785714Y-105680057D02*
X181833333Y-105775295D01*
X181833333Y-105775295D02*
X181833333Y-105918152D01*
X181833333Y-105918152D02*
X181785714Y-106013390D01*
X181785714Y-106013390D02*
X181738095Y-106061009D01*
X181738095Y-106061009D02*
X181642857Y-106108628D01*
X181642857Y-106108628D02*
X181261905Y-106108628D01*
X182738095Y-105584819D02*
X182261905Y-105584819D01*
X182261905Y-105584819D02*
X182214286Y-106061009D01*
X182214286Y-106061009D02*
X182261905Y-106013390D01*
X182261905Y-106013390D02*
X182357143Y-105965771D01*
X182357143Y-105965771D02*
X182595238Y-105965771D01*
X182595238Y-105965771D02*
X182690476Y-106013390D01*
X182690476Y-106013390D02*
X182738095Y-106061009D01*
X182738095Y-106061009D02*
X182785714Y-106156247D01*
X182785714Y-106156247D02*
X182785714Y-106394342D01*
X182785714Y-106394342D02*
X182738095Y-106489580D01*
X182738095Y-106489580D02*
X182690476Y-106537200D01*
X182690476Y-106537200D02*
X182595238Y-106584819D01*
X182595238Y-106584819D02*
X182357143Y-106584819D01*
X182357143Y-106584819D02*
X182261905Y-106537200D01*
X182261905Y-106537200D02*
X182214286Y-106489580D01*
X222607319Y-82333333D02*
X223321604Y-82333333D01*
X223321604Y-82333333D02*
X223464461Y-82380952D01*
X223464461Y-82380952D02*
X223559700Y-82476190D01*
X223559700Y-82476190D02*
X223607319Y-82619047D01*
X223607319Y-82619047D02*
X223607319Y-82714285D01*
X222940652Y-81428571D02*
X223607319Y-81428571D01*
X222559700Y-81666666D02*
X223273985Y-81904761D01*
X223273985Y-81904761D02*
X223273985Y-81285714D01*
%TO.C,C2*%
D11*
X178120000Y-85250000D02*
G75*
G02*
X172880000Y-85250000I-2620000J0D01*
G01*
X172880000Y-85250000D02*
G75*
G02*
X178120000Y-85250000I2620000J0D01*
G01*
X178080000Y-85290000D02*
X172920000Y-85290000D01*
X178080000Y-85250000D02*
X172920000Y-85250000D01*
X178079000Y-85330000D02*
X172921000Y-85330000D01*
X178077000Y-85370000D02*
X172923000Y-85370000D01*
X178075000Y-85410000D02*
X172925000Y-85410000D01*
X178072000Y-85450000D02*
X172928000Y-85450000D01*
X178069000Y-85490000D02*
X176540000Y-85490000D01*
X178065000Y-85530000D02*
X176540000Y-85530000D01*
X178060000Y-85570000D02*
X176540000Y-85570000D01*
X178055000Y-85610000D02*
X176540000Y-85610000D01*
X178049000Y-85650000D02*
X176540000Y-85650000D01*
X178043000Y-85690000D02*
X176540000Y-85690000D01*
X178036000Y-85730000D02*
X176540000Y-85730000D01*
X178028000Y-85770000D02*
X176540000Y-85770000D01*
X178019000Y-85810000D02*
X176540000Y-85810000D01*
X178010000Y-85850000D02*
X176540000Y-85850000D01*
X178001000Y-85890000D02*
X176540000Y-85890000D01*
X177990000Y-85930000D02*
X176540000Y-85930000D01*
X177979000Y-85970000D02*
X176540000Y-85970000D01*
X177967000Y-86010000D02*
X176540000Y-86010000D01*
X177955000Y-86050000D02*
X176540000Y-86050000D01*
X177942000Y-86090000D02*
X176540000Y-86090000D01*
X177928000Y-86130000D02*
X176540000Y-86130000D01*
X177913000Y-86170000D02*
X176540000Y-86170000D01*
X177898000Y-86210000D02*
X176540000Y-86210000D01*
X177882000Y-86250000D02*
X176540000Y-86250000D01*
X177865000Y-86290000D02*
X176540000Y-86290000D01*
X177847000Y-86330000D02*
X176540000Y-86330000D01*
X177829000Y-86370000D02*
X176540000Y-86370000D01*
X177809000Y-86410000D02*
X176540000Y-86410000D01*
X177789000Y-86450000D02*
X176540000Y-86450000D01*
X177768000Y-86490000D02*
X176540000Y-86490000D01*
X177746000Y-86530000D02*
X176540000Y-86530000D01*
X177723000Y-86570000D02*
X176540000Y-86570000D01*
X177699000Y-86610000D02*
X176540000Y-86610000D01*
X177675000Y-86650000D02*
X176540000Y-86650000D01*
X177649000Y-86690000D02*
X176540000Y-86690000D01*
X177622000Y-86730000D02*
X176540000Y-86730000D01*
X177594000Y-86770000D02*
X176540000Y-86770000D01*
X177565000Y-86810000D02*
X176540000Y-86810000D01*
X177535000Y-86850000D02*
X176540000Y-86850000D01*
X177503000Y-86890000D02*
X176540000Y-86890000D01*
X177470000Y-86930000D02*
X176540000Y-86930000D01*
X177436000Y-86970000D02*
X176540000Y-86970000D01*
X177401000Y-87010000D02*
X176540000Y-87010000D01*
X177364000Y-87050000D02*
X176540000Y-87050000D01*
X177325000Y-87090000D02*
X176540000Y-87090000D01*
X177285000Y-87130000D02*
X176540000Y-87130000D01*
X177243000Y-87170000D02*
X176540000Y-87170000D01*
X177225000Y-82695225D02*
X176725000Y-82695225D01*
X177199000Y-87210000D02*
X176540000Y-87210000D01*
X177152000Y-87250000D02*
X176540000Y-87250000D01*
X177104000Y-87290000D02*
X176540000Y-87290000D01*
X177053000Y-87330000D02*
X176540000Y-87330000D01*
X176999000Y-87370000D02*
X176540000Y-87370000D01*
X176975000Y-82445225D02*
X176975000Y-82945225D01*
X176943000Y-87410000D02*
X176540000Y-87410000D01*
X176883000Y-87450000D02*
X176540000Y-87450000D01*
X176819000Y-87490000D02*
X176540000Y-87490000D01*
X176751000Y-87530000D02*
X176540000Y-87530000D01*
X176677000Y-87570000D02*
X174323000Y-87570000D01*
X176598000Y-87610000D02*
X174402000Y-87610000D01*
X176511000Y-87650000D02*
X174489000Y-87650000D01*
X176414000Y-87690000D02*
X174586000Y-87690000D01*
X176305000Y-87730000D02*
X174695000Y-87730000D01*
X176177000Y-87770000D02*
X174823000Y-87770000D01*
X176017000Y-87810000D02*
X174983000Y-87810000D01*
X175783000Y-87850000D02*
X175217000Y-87850000D01*
X174460000Y-87530000D02*
X174249000Y-87530000D01*
X174460000Y-87490000D02*
X174181000Y-87490000D01*
X174460000Y-87450000D02*
X174117000Y-87450000D01*
X174460000Y-87410000D02*
X174057000Y-87410000D01*
X174460000Y-87370000D02*
X174001000Y-87370000D01*
X174460000Y-87330000D02*
X173947000Y-87330000D01*
X174460000Y-87290000D02*
X173896000Y-87290000D01*
X174460000Y-87250000D02*
X173848000Y-87250000D01*
X174460000Y-87210000D02*
X173801000Y-87210000D01*
X174460000Y-87170000D02*
X173757000Y-87170000D01*
X174460000Y-87130000D02*
X173715000Y-87130000D01*
X174460000Y-87090000D02*
X173675000Y-87090000D01*
X174460000Y-87050000D02*
X173636000Y-87050000D01*
X174460000Y-87010000D02*
X173599000Y-87010000D01*
X174460000Y-86970000D02*
X173564000Y-86970000D01*
X174460000Y-86930000D02*
X173530000Y-86930000D01*
X174460000Y-86890000D02*
X173497000Y-86890000D01*
X174460000Y-86850000D02*
X173465000Y-86850000D01*
X174460000Y-86810000D02*
X173435000Y-86810000D01*
X174460000Y-86770000D02*
X173406000Y-86770000D01*
X174460000Y-86730000D02*
X173378000Y-86730000D01*
X174460000Y-86690000D02*
X173351000Y-86690000D01*
X174460000Y-86650000D02*
X173325000Y-86650000D01*
X174460000Y-86610000D02*
X173301000Y-86610000D01*
X174460000Y-86570000D02*
X173277000Y-86570000D01*
X174460000Y-86530000D02*
X173254000Y-86530000D01*
X174460000Y-86490000D02*
X173232000Y-86490000D01*
X174460000Y-86450000D02*
X173211000Y-86450000D01*
X174460000Y-86410000D02*
X173191000Y-86410000D01*
X174460000Y-86370000D02*
X173171000Y-86370000D01*
X174460000Y-86330000D02*
X173153000Y-86330000D01*
X174460000Y-86290000D02*
X173135000Y-86290000D01*
X174460000Y-86250000D02*
X173118000Y-86250000D01*
X174460000Y-86210000D02*
X173102000Y-86210000D01*
X174460000Y-86170000D02*
X173087000Y-86170000D01*
X174460000Y-86130000D02*
X173072000Y-86130000D01*
X174460000Y-86090000D02*
X173058000Y-86090000D01*
X174460000Y-86050000D02*
X173045000Y-86050000D01*
X174460000Y-86010000D02*
X173033000Y-86010000D01*
X174460000Y-85970000D02*
X173021000Y-85970000D01*
X174460000Y-85930000D02*
X173010000Y-85930000D01*
X174460000Y-85890000D02*
X172999000Y-85890000D01*
X174460000Y-85850000D02*
X172990000Y-85850000D01*
X174460000Y-85810000D02*
X172981000Y-85810000D01*
X174460000Y-85770000D02*
X172972000Y-85770000D01*
X174460000Y-85730000D02*
X172964000Y-85730000D01*
X174460000Y-85690000D02*
X172957000Y-85690000D01*
X174460000Y-85650000D02*
X172951000Y-85650000D01*
X174460000Y-85610000D02*
X172945000Y-85610000D01*
X174460000Y-85570000D02*
X172940000Y-85570000D01*
X174460000Y-85530000D02*
X172935000Y-85530000D01*
X174460000Y-85490000D02*
X172931000Y-85490000D01*
%TO.C,J1*%
X168180000Y-75210000D02*
X168180000Y-121040000D01*
X165420000Y-121040000D02*
X168180000Y-121040000D01*
X165420000Y-75210000D02*
X168180000Y-75210000D01*
X165420000Y-75210000D02*
X165420000Y-121040000D01*
X165420000Y-73940000D02*
X165420000Y-72560000D01*
X165420000Y-72560000D02*
X166800000Y-72560000D01*
%TO.C,J3*%
X212380000Y-118380000D02*
X220420000Y-118380000D01*
X212380000Y-129120000D02*
X212380000Y-118380000D01*
X216000000Y-119188000D02*
X216000000Y-118380000D01*
X216000000Y-124120000D02*
X216000000Y-122812000D01*
X216000000Y-129120000D02*
X216000000Y-127880000D01*
X217000000Y-119188000D02*
X217000000Y-118380000D01*
X217000000Y-124120000D02*
X217000000Y-122812000D01*
X217000000Y-129120000D02*
X217000000Y-127880000D01*
X218300000Y-120457000D02*
X218300000Y-118380000D01*
X218300000Y-124120000D02*
X218300000Y-121543000D01*
X218300000Y-129120000D02*
X218300000Y-127880000D01*
X220420000Y-118380000D02*
X220420000Y-125700000D01*
X220420000Y-126300000D02*
X220420000Y-129120000D01*
X220420000Y-129120000D02*
X212380000Y-129120000D01*
X220420000Y-126000000D02*
X221030000Y-125560000D01*
X221030000Y-126440000D01*
X220420000Y-126000000D01*
G36*
X221030000Y-126440000D02*
G01*
X220420000Y-126000000D01*
X221030000Y-125560000D01*
X221030000Y-126440000D01*
G37*
%TO.C,L1*%
X183060000Y-73810000D02*
G75*
G02*
X172320000Y-73810000I-5370000J0D01*
G01*
X172320000Y-73810000D02*
G75*
G02*
X183060000Y-73810000I5370000J0D01*
G01*
%TO.C,J5*%
X147620000Y-127040000D02*
X149000000Y-127040000D01*
X147620000Y-128420000D02*
X147620000Y-127040000D01*
X147620000Y-129690000D02*
X147620000Y-137420000D01*
X147620000Y-129690000D02*
X150380000Y-129690000D01*
X147620000Y-137420000D02*
X150380000Y-137420000D01*
X150380000Y-129690000D02*
X150380000Y-137420000D01*
%TO.C,Q2*%
X196150000Y-100970000D02*
X196150000Y-104570000D01*
X196161522Y-100931522D02*
G75*
G02*
X200600001Y-102770000I1838478J-1838478D01*
G01*
X200600000Y-102770000D02*
G75*
G02*
X196161522Y-104608478I-2600000J0D01*
G01*
%TO.C,R4*%
X177880000Y-101500000D02*
X178650000Y-101500000D01*
X185960000Y-101500000D02*
X185190000Y-101500000D01*
X178650000Y-100130000D02*
X185190000Y-100130000D01*
X185190000Y-102870000D01*
X178650000Y-102870000D01*
X178650000Y-100130000D01*
%TO.C,U1*%
X157850000Y-134800000D02*
X157850000Y-131200000D01*
X153400000Y-133000000D02*
G75*
G02*
X157838478Y-131161522I2600000J0D01*
G01*
X157838478Y-134838478D02*
G75*
G02*
X153399999Y-133000000I-1838478J1838478D01*
G01*
%TO.C,R2*%
X173500000Y-127960000D02*
X173500000Y-128730000D01*
X173500000Y-136040000D02*
X173500000Y-135270000D01*
X172130000Y-128730000D02*
X174870000Y-128730000D01*
X174870000Y-135270000D01*
X172130000Y-135270000D01*
X172130000Y-128730000D01*
%TO.C,R3*%
X163500000Y-128690000D02*
X163500000Y-129460000D01*
X163500000Y-136770000D02*
X163500000Y-136000000D01*
X162130000Y-129460000D02*
X164870000Y-129460000D01*
X164870000Y-136000000D01*
X162130000Y-136000000D01*
X162130000Y-129460000D01*
%TO.C,D1*%
X202160000Y-94500000D02*
X201140000Y-94500000D01*
X200360000Y-95970000D02*
X200360000Y-93030000D01*
X200240000Y-95970000D02*
X200240000Y-93030000D01*
X200120000Y-95970000D02*
X200120000Y-93030000D01*
X194680000Y-94500000D02*
X195700000Y-94500000D01*
X195700000Y-93030000D02*
X201140000Y-93030000D01*
X201140000Y-95970000D01*
X195700000Y-95970000D01*
X195700000Y-93030000D01*
%TO.C,HS1*%
X190420000Y-111030000D02*
X190540000Y-110910000D01*
X190420000Y-146050000D02*
X190540000Y-146170000D01*
X190440000Y-115850000D02*
X190500000Y-115670000D01*
X190440000Y-141230000D02*
X190500000Y-141410000D01*
X190450000Y-119970000D02*
X194160000Y-118360000D01*
X190450000Y-120640000D02*
X190450000Y-119970000D01*
X190450000Y-136440000D02*
X190450000Y-137110000D01*
X190450000Y-137110000D02*
X194160000Y-138720000D01*
X190500000Y-115670000D02*
X193300000Y-116330000D01*
X190500000Y-141410000D02*
X193300000Y-140750000D01*
X190540000Y-110910000D02*
X194310000Y-113060000D01*
X190540000Y-146170000D02*
X194310000Y-144020000D01*
X193300000Y-116330000D02*
X190420000Y-111030000D01*
X193300000Y-140750000D02*
X190420000Y-146050000D01*
X193630000Y-111010000D02*
X193780000Y-110920000D01*
X193630000Y-146070000D02*
X193780000Y-146160000D01*
X193780000Y-110920000D02*
X195670000Y-112880000D01*
X193780000Y-146160000D02*
X195670000Y-144200000D01*
X194160000Y-118350000D02*
X190440000Y-115850000D01*
X194160000Y-138730000D02*
X190440000Y-141230000D01*
X194310000Y-113060000D02*
X193630000Y-111010000D01*
X194310000Y-144020000D02*
X193630000Y-146070000D01*
X196200000Y-120640000D02*
X190450000Y-120640000D01*
X196200000Y-128540000D02*
X196200000Y-120640000D01*
X196200000Y-128540000D02*
X196200000Y-136440000D01*
X196200000Y-136440000D02*
X190450000Y-136440000D01*
X197900000Y-120640000D02*
X203650000Y-120640000D01*
X197900000Y-128540000D02*
X197900000Y-120640000D01*
X197900000Y-128540000D02*
X197900000Y-136440000D01*
X197900000Y-136440000D02*
X203650000Y-136440000D01*
X199790000Y-113060000D02*
X200470000Y-111010000D01*
X199790000Y-144020000D02*
X200470000Y-146070000D01*
X199940000Y-118350000D02*
X203660000Y-115850000D01*
X199940000Y-138730000D02*
X203660000Y-141230000D01*
X200320000Y-110920000D02*
X198430000Y-112880000D01*
X200320000Y-146160000D02*
X198430000Y-144200000D01*
X200470000Y-111010000D02*
X200320000Y-110920000D01*
X200470000Y-146070000D02*
X200320000Y-146160000D01*
X200800000Y-116330000D02*
X203680000Y-111030000D01*
X200800000Y-140750000D02*
X203680000Y-146050000D01*
X203560000Y-110910000D02*
X199790000Y-113060000D01*
X203560000Y-146170000D02*
X199790000Y-144020000D01*
X203600000Y-115670000D02*
X200800000Y-116330000D01*
X203600000Y-141410000D02*
X200800000Y-140750000D01*
X203650000Y-119970000D02*
X199940000Y-118360000D01*
X203650000Y-120640000D02*
X203650000Y-119970000D01*
X203650000Y-136440000D02*
X203650000Y-137110000D01*
X203650000Y-137110000D02*
X199940000Y-138720000D01*
X203660000Y-115850000D02*
X203600000Y-115670000D01*
X203660000Y-141230000D02*
X203600000Y-141410000D01*
X203680000Y-111030000D02*
X203560000Y-110910000D01*
X203680000Y-146050000D02*
X203560000Y-146170000D01*
%TO.C,Q1*%
X204240000Y-123430000D02*
X208860000Y-123430000D01*
X204240000Y-126690000D02*
X205620000Y-126690000D01*
X204240000Y-130390000D02*
X205620000Y-130390000D01*
X204240000Y-133650000D02*
X204240000Y-123430000D01*
X205620000Y-133650000D02*
X205620000Y-123430000D01*
X208860000Y-123430000D02*
X208860000Y-133650000D01*
X208860000Y-133650000D02*
X204240000Y-133650000D01*
%TO.C,K1*%
X207650000Y-93250000D02*
X223250000Y-93250000D01*
X207650000Y-113050000D02*
X207650000Y-93250000D01*
X207650000Y-113050000D02*
X214250000Y-113050000D01*
X209500000Y-105600000D02*
X209500000Y-108100000D01*
X209500000Y-105600000D02*
X213700000Y-105600000D01*
X211250000Y-97500000D02*
X213750000Y-97500000D01*
X213700000Y-103600000D02*
X217300000Y-103600000D01*
X213700000Y-107600000D02*
X213700000Y-103600000D01*
X215500000Y-100700000D02*
X213000000Y-96100000D01*
X215500000Y-102200000D02*
X215500000Y-100700000D01*
X215500000Y-102200000D02*
X219100000Y-102200000D01*
X215500000Y-109000000D02*
X215500000Y-109800000D01*
X215500000Y-109000000D02*
X219100000Y-109000000D01*
X216650000Y-113050000D02*
X223250000Y-113050000D01*
X217300000Y-103600000D02*
X213700000Y-107600000D01*
X217300000Y-103600000D02*
X217300000Y-107600000D01*
X217300000Y-105600000D02*
X221500000Y-105600000D01*
X217300000Y-107600000D02*
X213700000Y-107600000D01*
X219100000Y-102200000D02*
X219100000Y-109000000D01*
X219650000Y-97500000D02*
X217200000Y-97500000D01*
X221500000Y-108100000D02*
X221500000Y-105600000D01*
X223250000Y-93250000D02*
X223250000Y-113050000D01*
%TO.C,U2*%
X194830000Y-69200000D02*
X199450000Y-69200000D01*
X194830000Y-79420000D02*
X194830000Y-69200000D01*
X198070000Y-69200000D02*
X198070000Y-79420000D01*
X199450000Y-69200000D02*
X199450000Y-79420000D01*
X199450000Y-72460000D02*
X198070000Y-72460000D01*
X199450000Y-76160000D02*
X198070000Y-76160000D01*
X199450000Y-79420000D02*
X194830000Y-79420000D01*
%TO.C,J2*%
X142620000Y-72560000D02*
X144000000Y-72560000D01*
X142620000Y-73940000D02*
X142620000Y-72560000D01*
X142620000Y-75210000D02*
X142620000Y-121040000D01*
X142620000Y-75210000D02*
X145380000Y-75210000D01*
X142620000Y-121040000D02*
X145380000Y-121040000D01*
X145380000Y-75210000D02*
X145380000Y-121040000D01*
%TO.C,R1*%
X178040000Y-127500000D02*
X178810000Y-127500000D01*
X186120000Y-127500000D02*
X185350000Y-127500000D01*
X178810000Y-126130000D02*
X185350000Y-126130000D01*
X185350000Y-128870000D01*
X178810000Y-128870000D01*
X178810000Y-126130000D01*
%TO.C,C1*%
X204650000Y-72982380D02*
X202469000Y-72982380D01*
X204650000Y-73022380D02*
X202472000Y-73022380D01*
X204650000Y-73062380D02*
X202476000Y-73062380D01*
X204650000Y-73102380D02*
X202480000Y-73102380D01*
X204650000Y-73142380D02*
X202485000Y-73142380D01*
X204650000Y-73182380D02*
X202490000Y-73182380D01*
X204650000Y-73222380D02*
X202495000Y-73222380D01*
X204650000Y-73262380D02*
X202502000Y-73262380D01*
X204650000Y-73302380D02*
X202508000Y-73302380D01*
X204650000Y-73342380D02*
X202516000Y-73342380D01*
X204650000Y-73382380D02*
X202523000Y-73382380D01*
X204650000Y-73422380D02*
X202531000Y-73422380D01*
X204650000Y-73462380D02*
X202540000Y-73462380D01*
X204650000Y-73502380D02*
X202550000Y-73502380D01*
X204650000Y-73542380D02*
X202559000Y-73542380D01*
X204650000Y-73582380D02*
X202570000Y-73582380D01*
X204650000Y-73622380D02*
X202581000Y-73622380D01*
X204650000Y-73662380D02*
X202592000Y-73662380D01*
X204650000Y-73702380D02*
X202604000Y-73702380D01*
X204650000Y-73742380D02*
X202617000Y-73742380D01*
X204650000Y-73782380D02*
X202630000Y-73782380D01*
X204650000Y-73822380D02*
X202643000Y-73822380D01*
X204650000Y-73862380D02*
X202658000Y-73862380D01*
X204650000Y-73902380D02*
X202673000Y-73902380D01*
X204650000Y-73942380D02*
X202688000Y-73942380D01*
X204650000Y-73982380D02*
X202704000Y-73982380D01*
X204650000Y-74022380D02*
X202721000Y-74022380D01*
X204650000Y-74062380D02*
X202738000Y-74062380D01*
X204650000Y-74102380D02*
X202756000Y-74102380D01*
X204650000Y-74142380D02*
X202775000Y-74142380D01*
X204650000Y-74182380D02*
X202794000Y-74182380D01*
X204650000Y-74222380D02*
X202814000Y-74222380D01*
X204650000Y-74262380D02*
X202835000Y-74262380D01*
X204650000Y-74302380D02*
X202856000Y-74302380D01*
X204650000Y-74342380D02*
X202878000Y-74342380D01*
X204650000Y-74382380D02*
X202901000Y-74382380D01*
X204650000Y-74422380D02*
X202925000Y-74422380D01*
X204650000Y-74462380D02*
X202949000Y-74462380D01*
X204650000Y-74502380D02*
X202974000Y-74502380D01*
X204650000Y-74542380D02*
X203000000Y-74542380D01*
X204650000Y-74582380D02*
X203027000Y-74582380D01*
X204650000Y-74622380D02*
X203054000Y-74622380D01*
X204650000Y-74662380D02*
X203083000Y-74662380D01*
X204650000Y-74702380D02*
X203113000Y-74702380D01*
X204650000Y-74742380D02*
X203143000Y-74742380D01*
X204650000Y-74782380D02*
X203174000Y-74782380D01*
X204650000Y-74822380D02*
X203207000Y-74822380D01*
X204650000Y-74862380D02*
X203240000Y-74862380D01*
X204650000Y-74902380D02*
X203275000Y-74902380D01*
X204650000Y-74942380D02*
X203311000Y-74942380D01*
X204650000Y-74982380D02*
X203348000Y-74982380D01*
X204650000Y-75022380D02*
X203386000Y-75022380D01*
X206092000Y-75982380D02*
X205288000Y-75982380D01*
X206323000Y-75942380D02*
X205057000Y-75942380D01*
X206491000Y-75902380D02*
X204889000Y-75902380D01*
X206629000Y-75862380D02*
X204751000Y-75862380D01*
X206748000Y-75822380D02*
X204632000Y-75822380D01*
X206855000Y-75782380D02*
X204525000Y-75782380D01*
X206951000Y-75742380D02*
X204429000Y-75742380D01*
X207040000Y-75702380D02*
X204340000Y-75702380D01*
X207122000Y-75662380D02*
X204258000Y-75662380D01*
X207199000Y-75622380D02*
X204181000Y-75622380D01*
X207271000Y-75582380D02*
X204109000Y-75582380D01*
X207339000Y-75542380D02*
X204041000Y-75542380D01*
X207404000Y-75502380D02*
X203976000Y-75502380D01*
X207465000Y-75462380D02*
X203915000Y-75462380D01*
X207524000Y-75422380D02*
X203856000Y-75422380D01*
X207529000Y-69242139D02*
X207529000Y-69872139D01*
X207580000Y-75382380D02*
X203800000Y-75382380D01*
X207633000Y-75342380D02*
X203747000Y-75342380D01*
X207685000Y-75302380D02*
X203695000Y-75302380D01*
X207734000Y-75262380D02*
X203646000Y-75262380D01*
X207781000Y-75222380D02*
X203599000Y-75222380D01*
X207827000Y-75182380D02*
X203553000Y-75182380D01*
X207844000Y-69557139D02*
X207214000Y-69557139D01*
X207871000Y-75142380D02*
X203509000Y-75142380D01*
X207913000Y-75102380D02*
X203467000Y-75102380D01*
X207954000Y-75062380D02*
X203426000Y-75062380D01*
X207994000Y-75022380D02*
X206730000Y-75022380D01*
X208032000Y-74982380D02*
X206730000Y-74982380D01*
X208069000Y-74942380D02*
X206730000Y-74942380D01*
X208105000Y-74902380D02*
X206730000Y-74902380D01*
X208140000Y-74862380D02*
X206730000Y-74862380D01*
X208173000Y-74822380D02*
X206730000Y-74822380D01*
X208206000Y-74782380D02*
X206730000Y-74782380D01*
X208237000Y-74742380D02*
X206730000Y-74742380D01*
X208267000Y-74702380D02*
X206730000Y-74702380D01*
X208297000Y-74662380D02*
X206730000Y-74662380D01*
X208326000Y-74622380D02*
X206730000Y-74622380D01*
X208353000Y-74582380D02*
X206730000Y-74582380D01*
X208380000Y-74542380D02*
X206730000Y-74542380D01*
X208406000Y-74502380D02*
X206730000Y-74502380D01*
X208431000Y-74462380D02*
X206730000Y-74462380D01*
X208455000Y-74422380D02*
X206730000Y-74422380D01*
X208479000Y-74382380D02*
X206730000Y-74382380D01*
X208502000Y-74342380D02*
X206730000Y-74342380D01*
X208524000Y-74302380D02*
X206730000Y-74302380D01*
X208545000Y-74262380D02*
X206730000Y-74262380D01*
X208566000Y-74222380D02*
X206730000Y-74222380D01*
X208586000Y-74182380D02*
X206730000Y-74182380D01*
X208605000Y-74142380D02*
X206730000Y-74142380D01*
X208624000Y-74102380D02*
X206730000Y-74102380D01*
X208642000Y-74062380D02*
X206730000Y-74062380D01*
X208659000Y-74022380D02*
X206730000Y-74022380D01*
X208676000Y-73982380D02*
X206730000Y-73982380D01*
X208692000Y-73942380D02*
X206730000Y-73942380D01*
X208707000Y-73902380D02*
X206730000Y-73902380D01*
X208722000Y-73862380D02*
X206730000Y-73862380D01*
X208737000Y-73822380D02*
X206730000Y-73822380D01*
X208750000Y-73782380D02*
X206730000Y-73782380D01*
X208763000Y-73742380D02*
X206730000Y-73742380D01*
X208776000Y-73702380D02*
X206730000Y-73702380D01*
X208788000Y-73662380D02*
X206730000Y-73662380D01*
X208799000Y-73622380D02*
X206730000Y-73622380D01*
X208810000Y-73582380D02*
X206730000Y-73582380D01*
X208821000Y-73542380D02*
X206730000Y-73542380D01*
X208830000Y-73502380D02*
X206730000Y-73502380D01*
X208840000Y-73462380D02*
X206730000Y-73462380D01*
X208849000Y-73422380D02*
X206730000Y-73422380D01*
X208857000Y-73382380D02*
X206730000Y-73382380D01*
X208864000Y-73342380D02*
X206730000Y-73342380D01*
X208872000Y-73302380D02*
X206730000Y-73302380D01*
X208878000Y-73262380D02*
X206730000Y-73262380D01*
X208885000Y-73222380D02*
X206730000Y-73222380D01*
X208890000Y-73182380D02*
X206730000Y-73182380D01*
X208895000Y-73142380D02*
X206730000Y-73142380D01*
X208900000Y-73102380D02*
X206730000Y-73102380D01*
X208904000Y-73062380D02*
X206730000Y-73062380D01*
X208908000Y-73022380D02*
X206730000Y-73022380D01*
X208911000Y-72982380D02*
X206730000Y-72982380D01*
X208914000Y-72942380D02*
X202466000Y-72942380D01*
X208916000Y-72902380D02*
X202464000Y-72902380D01*
X208918000Y-72862380D02*
X202462000Y-72862380D01*
X208919000Y-72822380D02*
X202461000Y-72822380D01*
X208920000Y-72742380D02*
X202460000Y-72742380D01*
X208920000Y-72782380D02*
X202460000Y-72782380D01*
X208960000Y-72742380D02*
G75*
G02*
X202420000Y-72742380I-3270000J0D01*
G01*
X202420000Y-72742380D02*
G75*
G02*
X208960000Y-72742380I3270000J0D01*
G01*
%TO.C,D2*%
X188190000Y-70030000D02*
X188190000Y-70940000D01*
X188190000Y-81590000D02*
X188190000Y-80680000D01*
X190910000Y-72365000D02*
X185470000Y-72365000D01*
X190910000Y-72485000D02*
X185470000Y-72485000D01*
X190910000Y-72605000D02*
X185470000Y-72605000D01*
X185470000Y-70940000D02*
X190910000Y-70940000D01*
X190910000Y-80680000D01*
X185470000Y-80680000D01*
X185470000Y-70940000D01*
%TO.C,R5*%
X177960000Y-108500000D02*
X178730000Y-108500000D01*
X186040000Y-108500000D02*
X185270000Y-108500000D01*
X178730000Y-107130000D02*
X185270000Y-107130000D01*
X185270000Y-109870000D01*
X178730000Y-109870000D01*
X178730000Y-107130000D01*
%TO.C,J4*%
X214112500Y-76630000D02*
X222152500Y-76630000D01*
X214112500Y-79450000D02*
X214112500Y-76630000D01*
X214112500Y-87370000D02*
X214112500Y-80050000D01*
X216232500Y-76630000D02*
X216232500Y-77870000D01*
X216232500Y-81630000D02*
X216232500Y-84207000D01*
X216232500Y-85293000D02*
X216232500Y-87370000D01*
X217532500Y-76630000D02*
X217532500Y-77870000D01*
X217532500Y-81630000D02*
X217532500Y-82938000D01*
X217532500Y-86562000D02*
X217532500Y-87370000D01*
X218532500Y-76630000D02*
X218532500Y-77870000D01*
X218532500Y-81630000D02*
X218532500Y-82938000D01*
X218532500Y-86562000D02*
X218532500Y-87370000D01*
X222152500Y-76630000D02*
X222152500Y-87370000D01*
X222152500Y-87370000D02*
X214112500Y-87370000D01*
X214112500Y-79750000D02*
X213502500Y-80190000D01*
X213502500Y-79310000D01*
X214112500Y-79750000D01*
G36*
X214112500Y-79750000D02*
G01*
X213502500Y-80190000D01*
X213502500Y-79310000D01*
X214112500Y-79750000D01*
G37*
%TD*%
M02*
